<?xml version="1.0" encoding="UTF-8" standalone="no"?>
<svg
   xmlns:dc="http://purl.org/dc/elements/1.1/"
   xmlns:cc="http://creativecommons.org/ns#"
   xmlns:rdf="http://www.w3.org/1999/02/22-rdf-syntax-ns#"
   xmlns:svg="http://www.w3.org/2000/svg"
   xmlns="http://www.w3.org/2000/svg"
   xmlns:sodipodi="http://sodipodi.sourceforge.net/DTD/sodipodi-0.dtd"
   xmlns:inkscape="http://www.inkscape.org/namespaces/inkscape"
   width="11in"
   height="8.5in"
   viewBox="0 0 279.4 215.9"
   version="1.1"
   id="svg66"
   sodipodi:docname="k_alps.svg"
   inkscape:version="1.0.2 (e86c8708, 2021-01-15)">
  <metadata
     id="metadata72">
    <rdf:RDF>
      <cc:Work
         rdf:about="">
        <dc:format>image/svg+xml</dc:format>
        <dc:type
           rdf:resource="http://purl.org/dc/dcmitype/StillImage" />
        <dc:title></dc:title>
      </cc:Work>
    </rdf:RDF>
  </metadata>
  <defs
     id="defs70" />
  <sodipodi:namedview
     pagecolor="#ffffff"
     bordercolor="#666666"
     borderopacity="1"
     objecttolerance="10"
     gridtolerance="10"
     guidetolerance="10"
     inkscape:pageopacity="0"
     inkscape:pageshadow="2"
     inkscape:window-width="1714"
     inkscape:window-height="948"
     id="namedview68"
     showgrid="false"
     inkscape:zoom="3.1366124"
     inkscape:cx="375.20406"
     inkscape:cy="456.16274"
     inkscape:window-x="1555"
     inkscape:window-y="23"
     inkscape:window-maximized="0"
     inkscape:current-layer="svg66"
     units="in" />
  <circle
     cx="226.49028"
     cy="78.260323"
     r="1.2"
     id="circle2"
     style="opacity:0.85;fill:none;stroke:#0000c8;stroke-width:0.5;stroke-miterlimit:4;stroke-dasharray:none;stroke-opacity:1" />
  <circle
     cx="210.01527"
     cy="37.985317"
     r="1.2"
     id="circle4"
     style="opacity:0.85;fill:none;stroke:#0000c8;stroke-width:0.5;stroke-miterlimit:4;stroke-dasharray:none;stroke-opacity:1" />
  <circle
     cx="159.58914"
     cy="86.154701"
     r="1.2"
     id="circle6"
     style="opacity:0.85;fill:none;stroke:#0000c8;stroke-width:0.5;stroke-miterlimit:4;stroke-dasharray:none;stroke-opacity:1" />
  <circle
     cx="115.65802"
     cy="104.35156"
     r="1.2"
     id="circle8"
     style="opacity:0.85;fill:none;stroke:#0000c8;stroke-width:0.5;stroke-miterlimit:4;stroke-dasharray:none;stroke-opacity:1" />
  <circle
     cx="150.29028"
     cy="27.660315"
     r="1.2"
     id="circle10"
     style="opacity:0.85;fill:none;stroke:#0000c8;stroke-width:0.5;stroke-miterlimit:4;stroke-dasharray:none;stroke-opacity:1" />
  <circle
     cx="203.8035"
     cy="87.485313"
     r="1.2"
     id="circle12"
     style="opacity:0.85;fill:none;stroke:#0000c8;stroke-width:0.5;stroke-miterlimit:4;stroke-dasharray:none;stroke-opacity:1" />
  <circle
     cx="226.49028"
     cy="40.160324"
     r="1.2"
     id="circle14"
     style="opacity:0.85;fill:none;stroke:#0000c8;stroke-width:0.5;stroke-miterlimit:4;stroke-dasharray:none;stroke-opacity:1" />
  <path
     d="m 171.57939,105.88014 c -18.92308,0 -37.07112,7.51717 -50.45176,20.8978 l -6.73519,6.73519 c -0.39053,0.39053 -1.02369,0.39053 -1.41421,0 L 86.037457,106.57237 c -0.390524,-0.39053 -0.390524,-1.02369 0,-1.41422 l 6.735192,-6.735188 C 103.36218,87.833433 115.97731,79.486728 129.86457,73.881366 c 0.37813,-0.152623 0.62571,-0.519546 0.62571,-0.92731 v -46.59496 c 0,-0.45338 0.30502,-0.850031 0.74319,-0.966463 38.58364,-10.252384 85.51206,-10.8449 120.66943,8.069851 v 72.386236 z"
     id="path16"
     style="opacity:0.85;fill:none;stroke:#0000c8;stroke-width:0.5;stroke-miterlimit:4;stroke-dasharray:none;stroke-opacity:1"
     sodipodi:nodetypes="cssssssssssccc" />
  <path
     d="m 240.76527,43.335324 a 0.75,0.75 0 0 1 -0.75,-0.75 v -0.85 a 0.75,0.75 0 0 0 -0.75,-0.75 h -6.5 a 0.75,0.75 0 0 0 -0.75,0.75 v 0.85 a 0.75,0.75 0 0 1 -0.75,0.75 h -2.2 a 0.75,0.75 0 0 0 -0.75,0.75 v 11.2 a 0.75,0.75 0 0 0 0.75,0.75 h 2.2 a 0.75,0.75 0 0 1 0.75,0.75 v 0.85 a 0.75,0.75 0 0 0 0.75,0.75 h 6.5 a 0.75,0.75 0 0 0 0.75,-0.75 v -0.85 a 0.75,0.75 0 0 1 0.75,-0.75 h 2.2 a 0.75,0.75 0 0 0 0.75,-0.75 v -11.2 a 0.75,0.75 0 0 0 -0.75,-0.75 z"
     id="path18"
     style="opacity:0.85;fill:none;stroke:#0000c8;stroke-width:0.5;stroke-miterlimit:4;stroke-dasharray:none;stroke-opacity:1" />
  <path
     d="m 141.50168,94.728672 2.89877,10.818368 a 0.75,0.75 0 0 0 0.91856,0.53033 l 13.42637,-3.59758 a 0.75,0.75 0 0 0 0.53033,-0.91856 l -2.89878,-10.818371 a 0.75,0.75 0 0 0 -0.91855,-0.53033 l -13.42637,3.597585 a 0.75,0.75 0 0 0 -0.53033,0.918558 z"
     id="path20"
     style="opacity:0.85;fill:none;stroke:#0000c8;stroke-width:0.5;stroke-miterlimit:4;stroke-dasharray:none;stroke-opacity:1" />
  <path
     d="m 133.06528,73.185314 v 11.2 a 0.75,0.75 0 0 0 0.75,0.75 h 13.9 a 0.75,0.75 0 0 0 0.75,-0.75 v -11.2 a 0.75,0.75 0 0 0 -0.75,-0.75 h -13.9 a 0.75,0.75 0 0 0 -0.75,0.75 z"
     id="path22"
     style="opacity:0.85;fill:none;stroke:#0000c8;stroke-width:0.5;stroke-miterlimit:4;stroke-dasharray:none;stroke-opacity:1" />
  <path
     d="m 152.11528,32.585314 v 11.2 a 0.75,0.75 0 0 0 0.75,0.75 h 13.9 a 0.75,0.75 0 0 0 0.75,-0.75 v -11.2 a 0.75,0.75 0 0 0 -0.75,-0.75 h -13.9 a 0.75,0.75 0 0 0 -0.75,0.75 z"
     id="path24"
     style="opacity:0.85;fill:none;stroke:#0000c8;stroke-width:0.5;stroke-miterlimit:4;stroke-dasharray:none;stroke-opacity:1" />
  <path
     d="m 190.21527,51.135314 v 11.2 a 0.75,0.75 0 0 0 0.75,0.75 h 13.9 a 0.75,0.75 0 0 0 0.75,-0.75 v -11.2 a 0.75,0.75 0 0 0 -0.75,-0.75 h -13.9 a 0.75,0.75 0 0 0 -0.75,0.75 z"
     id="path26"
     style="opacity:0.85;fill:none;stroke:#0000c8;stroke-width:0.5;stroke-miterlimit:4;stroke-dasharray:none;stroke-opacity:1" />
  <path
     d="m 209.26527,44.085314 v 11.2 a 0.75,0.75 0 0 0 0.75,0.75 h 13.9 a 0.75,0.75 0 0 0 0.75,-0.75 v -11.2 a 0.75,0.75 0 0 0 -0.75,-0.75 h -13.9 a 0.75,0.75 0 0 0 -0.75,0.75 z"
     id="path28"
     style="opacity:0.85;fill:none;stroke:#0000c8;stroke-width:0.5;stroke-miterlimit:4;stroke-dasharray:none;stroke-opacity:1" />
  <path
     d="m 190.21527,70.185314 v 11.2 a 0.75,0.75 0 0 0 0.75,0.75 h 13.9 a 0.75,0.75 0 0 0 0.75,-0.75 v -11.2 a 0.75,0.75 0 0 0 -0.75,-0.75 h -13.9 a 0.75,0.75 0 0 0 -0.75,0.75 z"
     id="path30"
     style="opacity:0.85;fill:none;stroke:#0000c8;stroke-width:0.5;stroke-miterlimit:4;stroke-dasharray:none;stroke-opacity:1" />
  <path
     d="m 171.16528,45.135314 v 11.2 a 0.75,0.75 0 0 0 0.75,0.75 h 13.89999 a 0.75,0.75 0 0 0 0.75,-0.75 v -11.2 a 0.75,0.75 0 0 0 -0.75,-0.75 h -13.89999 a 0.75,0.75 0 0 0 -0.75,0.75 z"
     id="path32"
     style="opacity:0.85;fill:none;stroke:#0000c8;stroke-width:0.5;stroke-miterlimit:4;stroke-dasharray:none;stroke-opacity:1" />
  <path
     d="m 133.06528,54.135314 v 11.2 a 0.75,0.75 0 0 0 0.75,0.75 h 13.9 a 0.75,0.75 0 0 0 0.75,-0.75 v -11.2 a 0.75,0.75 0 0 0 -0.75,-0.75 h -13.9 a 0.75,0.75 0 0 0 -0.75,0.75 z"
     id="path34"
     style="opacity:0.85;fill:none;stroke:#0000c8;stroke-width:0.5;stroke-miterlimit:4;stroke-dasharray:none;stroke-opacity:1" />
  <path
     d="m 152.11528,70.685314 v 11.2 a 0.75,0.75 0 0 0 0.75,0.75 h 13.9 a 0.75,0.75 0 0 0 0.75,-0.75 v -11.2 a 0.75,0.75 0 0 0 -0.75,-0.75 h -13.9 a 0.75,0.75 0 0 0 -0.75,0.75 z"
     id="path38"
     style="opacity:0.85;fill:none;stroke:#0000c8;stroke-width:0.5;stroke-miterlimit:4;stroke-dasharray:none;stroke-opacity:1" />
  <path
     d="m 152.11528,51.635314 v 11.2 a 0.75,0.75 0 0 0 0.75,0.75 h 13.9 a 0.75,0.75 0 0 0 0.75,-0.75 v -11.2 a 0.75,0.75 0 0 0 -0.75,-0.75 h -13.9 a 0.75,0.75 0 0 0 -0.75,0.75 z"
     id="path40"
     style="opacity:0.85;fill:none;stroke:#0000c8;stroke-width:0.5;stroke-miterlimit:4;stroke-dasharray:none;stroke-opacity:1" />
  <path
     d="m 190.21527,32.085314 v 11.2 a 0.75,0.75 0 0 0 0.75,0.75 h 13.9 a 0.75,0.75 0 0 0 0.75,-0.75 v -11.2 a 0.75,0.75 0 0 0 -0.75,-0.75 h -13.9 a 0.75,0.75 0 0 0 -0.75,0.75 z"
     id="path42"
     style="opacity:0.85;fill:none;stroke:#0000c8;stroke-width:0.5;stroke-miterlimit:4;stroke-dasharray:none;stroke-opacity:1" />
  <path
     d="m 209.26527,63.135314 v 11.2 a 0.75,0.75 0 0 0 0.75,0.75 h 13.9 a 0.75,0.75 0 0 0 0.75,-0.75 v -11.2 a 0.75,0.75 0 0 0 -0.75,-0.75 h -13.9 a 0.75,0.75 0 0 0 -0.75,0.75 z"
     id="path44"
     style="opacity:0.85;fill:none;stroke:#0000c8;stroke-width:0.5;stroke-miterlimit:4;stroke-dasharray:none;stroke-opacity:1" />
  <path
     d="m 228.31527,63.135324 v 11.2 a 0.75,0.75 0 0 0 0.75,0.75 h 13.9 a 0.75,0.75 0 0 0 0.75,-0.75 v -11.2 a 0.75,0.75 0 0 0 -0.75,-0.75 h -13.9 a 0.75,0.75 0 0 0 -0.75,0.75 z"
     id="path46"
     style="opacity:0.85;fill:none;stroke:#0000c8;stroke-width:0.5;stroke-miterlimit:4;stroke-dasharray:none;stroke-opacity:1" />
  <path
     d="m 209.26527,82.185314 v 11.2 a 0.75,0.75 0 0 0 0.75,0.75 h 13.9 a 0.75,0.75 0 0 0 0.75,-0.75 v -11.2 a 0.75,0.75 0 0 0 -0.75,-0.75 h -13.9 a 0.75,0.75 0 0 0 -0.75,0.75 z"
     id="path48"
     style="opacity:0.85;fill:none;stroke:#0000c8;stroke-width:0.5;stroke-miterlimit:4;stroke-dasharray:none;stroke-opacity:1" />
  <path
     d="m 171.16528,26.085314 v 11.2 a 0.75,0.75 0 0 0 0.75,0.75 h 13.89999 a 0.75,0.75 0 0 0 0.75,-0.75 v -11.2 a 0.75,0.75 0 0 0 -0.75,-0.75 h -13.89999 a 0.75,0.75 0 0 0 -0.75,0.75 z"
     id="path50"
     style="opacity:0.85;fill:none;stroke:#0000c8;stroke-width:0.5;stroke-miterlimit:4;stroke-dasharray:none;stroke-opacity:1" />
  <path
     d="m 133.06528,35.085314 v 11.2 a 0.75,0.75 0 0 0 0.75,0.75 h 13.9 a 0.75,0.75 0 0 0 0.75,-0.75 v -11.2 a 0.75,0.75 0 0 0 -0.75,-0.75 h -13.9 a 0.75,0.75 0 0 0 -0.75,0.75 z"
     id="path52"
     style="opacity:0.85;fill:none;stroke:#0000c8;stroke-width:0.5;stroke-miterlimit:4;stroke-dasharray:none;stroke-opacity:1" />
  <path
     d="m 171.16528,64.185314 v 11.2 a 0.75,0.75 0 0 0 0.75,0.75 h 13.89999 a 0.75,0.75 0 0 0 0.75,-0.75 v -11.2 a 0.75,0.75 0 0 0 -0.75,-0.75 h -13.89999 a 0.75,0.75 0 0 0 -0.75,0.75 z"
     id="path54"
     style="opacity:0.85;fill:none;stroke:#0000c8;stroke-width:0.5;stroke-miterlimit:4;stroke-dasharray:none;stroke-opacity:1" />
  <path
     d="m 100.32101,95.930411 a 0.75,0.75 0 0 1 -0.72444,0.194114 0.75,0.75 0 0 0 -0.724445,0.194114 l -8.061697,8.061701 a 0.75,0.75 0 0 0 0,1.06066 l 1.299309,1.29931 a 0.75,0.75 0 0 1 0,1.06066 l -0.601041,0.60104 a 0.75,0.75 0 0 0 0,1.06066 l 1.767767,1.76776 a 0.75,0.75 0 0 0 1.06066,0 l 0.601041,-0.60104 a 0.75,0.75 0 0 1 1.06066,0 l 12.922376,12.92238 a 0.75,0.75 0 0 1 0,1.06066 l -0.60104,0.60104 a 0.75,0.75 0 0 0 0,1.06066 l 1.76777,1.76776 a 0.75,0.75 0 0 0 1.06066,0 l 0.60104,-0.60104 a 0.75,0.75 0 0 1 1.06066,0 l 1.29931,1.29931 a 0.75,0.75 0 0 0 1.06066,0 l 7.91959,-7.91959 a 0.75,0.75 0 0 0 0.19412,-0.72445 0.75,0.75 0 0 1 0.19411,-0.72444 l 2.15736,-2.15736 a 0.75,0.75 0 0 0 0,-1.06066 l -5.42705,-5.42704 a 0.75,0.75 0 0 0 -1.06066,0 l -2.01525,2.01525 a 0.75,0.75 0 0 1 -1.06066,0 l -9.2631,-9.2631 a 0.75,0.75 0 0 1 0,-1.06066 l 2.01525,-2.01525 a 0.75,0.75 0 0 0 0,-1.060659 l -5.42704,-5.427045 a 0.75,0.75 0 0 0 -1.06066,0 z"
     id="path56"
     style="opacity:0.85;fill:none;stroke:#0000c8;stroke-width:0.5;stroke-miterlimit:4;stroke-dasharray:none;stroke-opacity:1" />
  <path
     d="m 129.64237,115.79265 9.87352,-5.70048 a 0.75,0.75 0 0 0 0.375,-0.64952 0.75,0.75 0 0 1 0.375,-0.64952 l 2.46817,-1.425 a 0.75,0.75 0 0 0 0.27452,-1.02452 l -3.8375,-6.646744 a 0.75,0.75 0 0 0 -1.02452,-0.274519 l -2.46817,1.425003 a 0.75,0.75 0 0 1 -1.02452,-0.27452 l -6.55,-11.344935 a 0.75,0.75 0 0 1 0.27452,-1.024519 l 2.46817,-1.425 a 0.75,0.75 0 0 0 0.27452,-1.024519 l -3.8375,-6.646745 a 0.75,0.75 0 0 0 -1.02452,-0.274519 l -2.46817,1.425 a 0.75,0.75 0 0 1 -0.75,0 0.75,0.75 0 0 0 -0.75,0 l -9.87352,5.700481 a 0.75,0.75 0 0 0 -0.27452,1.024519 l 0.91875,1.591321 a 0.75,0.75 0 0 1 -0.27452,1.024519 l -0.73612,0.425 a 0.75,0.75 0 0 0 -0.27452,1.024519 l 1.25,2.165064 a 0.75,0.75 0 0 0 1.02452,0.274519 l 0.73612,-0.425 a 0.75,0.75 0 0 1 1.02452,0.274519 l 9.1375,15.826616 a 0.75,0.75 0 0 1 -0.27452,1.02452 l -0.73612,0.425 a 0.75,0.75 0 0 0 -0.27452,1.02452 l 1.25,2.16506 a 0.75,0.75 0 0 0 1.02452,0.27452 l 0.73612,-0.425 a 0.75,0.75 0 0 1 1.02452,0.27452 l 0.91875,1.59132 a 0.75,0.75 0 0 0 1.02452,0.27452 z"
     id="path58"
     style="opacity:0.85;fill:none;stroke:#0000c8;stroke-width:0.5;stroke-miterlimit:4;stroke-dasharray:none;stroke-opacity:1" />
  <path
     d="m 232.01527,80.685324 a 0.75,0.75 0 0 1 -0.75,0.75 h -2.2 a 0.75,0.75 0 0 0 -0.75,0.75 v 11.2 a 0.75,0.75 0 0 0 0.75,0.75 h 2.2 a 0.75,0.75 0 0 1 0.75,0.75 v 0.85 a 0.75,0.75 0 0 0 0.75,0.75 h 6.5 a 0.75,0.75 0 0 0 0.75,-0.75 v -0.85 a 0.75,0.75 0 0 1 0.75,-0.75 h 2.2 a 0.75,0.75 0 0 0 0.75,-0.75 v -11.2 a 0.75,0.75 0 0 0 -0.75,-0.75 h -2.2 a 0.75,0.75 0 0 1 -0.75,-0.75 v -0.85 a 0.75,0.75 0 0 0 -0.75,-0.75 h -6.5 a 0.75,0.75 0 0 0 -0.75,0.75 z"
     id="path62"
     style="opacity:0.85;fill:none;stroke:#0000c8;stroke-width:0.5;stroke-miterlimit:4;stroke-dasharray:none;stroke-opacity:1" />
  <path
     d="m 237.24354,10.211701 v 11.2 a 0.75,0.75 0 0 0 0.75,0.75 h 13.9 a 0.75,0.75 0 0 0 0.75,-0.75 v -11.2 a 0.75,0.75 0 0 0 -0.75,-0.7500001 h -13.9 a 0.75,0.75 0 0 0 -0.75,0.7500001 z"
     id="path928"
     style="opacity:0.85;fill:none;stroke:#00c800;stroke-width:0.5;stroke-miterlimit:4;stroke-dasharray:none;stroke-opacity:1" />
  <path
     d="m 228.30059,44.082155 v 11.2 a 0.75,0.75 0 0 0 0.75,0.75 h 13.9 a 0.75,0.75 0 0 0 0.75,-0.75 v -11.2 a 0.75,0.75 0 0 0 -0.75,-0.750001 h -13.9 a 0.75,0.75 0 0 0 -0.75,0.750001 z"
     id="path930"
     style="opacity:0.85;fill:none;stroke:#00c800;stroke-width:0.5;stroke-miterlimit:4;stroke-dasharray:none;stroke-opacity:1" />
  <path
     d="m 228.32382,82.184555 v 11.2 a 0.75,0.75 0 0 0 0.75,0.75 h 13.9 a 0.75,0.75 0 0 0 0.75,-0.75 v -11.2 a 0.75,0.75 0 0 0 -0.75,-0.75 h -13.9 a 0.75,0.75 0 0 0 -0.75,0.75 z"
     id="path932"
     style="opacity:0.85;fill:none;stroke:#00c800;stroke-width:0.5;stroke-miterlimit:4;stroke-dasharray:none;stroke-opacity:1" />
  <path
     d="m 106.19782,120.82554 7.9196,7.9196 a 0.75,0.75 0 0 0 1.06066,0 l 9.82878,-9.82879 a 0.75,0.75 0 0 0 0,-1.06066 l -7.9196,-7.91959 a 0.75,0.75 0 0 0 -1.06066,0 l -9.82878,9.82878 a 0.75,0.75 0 0 0 0,1.06066 z"
     id="path934"
     style="opacity:0.85;fill:none;stroke:#00c800;stroke-width:0.5;stroke-miterlimit:4;stroke-dasharray:none;stroke-opacity:1" />
  <path
     d="m 90.812037,105.44598 7.919593,7.91959 a 0.75,0.75 0 0 0 1.06066,0 l 9.82879,-9.82878 a 0.75,0.75 0 0 0 0,-1.06066 l -7.91959,-7.919594 a 0.75,0.75 0 0 0 -1.06067,0 l -9.828783,9.828784 a 0.75,0.75 0 0 0 0,1.06066 z"
     id="path936"
     style="opacity:0.85;fill:none;stroke:#00c800;stroke-width:0.5;stroke-miterlimit:4;stroke-dasharray:none;stroke-opacity:1" />
  <path
     d="m 123.01022,105.82902 5.6,9.69948 a 0.75,0.75 0 0 0 1.02452,0.27452 l 12.03776,-6.95 a 0.75,0.75 0 0 0 0.27452,-1.02452 l -5.6,-9.699473 a 0.75,0.75 0 0 0 -1.02452,-0.27452 l -12.03776,6.949993 a 0.75,0.75 0 0 0 -0.27452,1.02452 z"
     id="path938"
     style="opacity:0.85;fill:none;stroke:#00c800;stroke-width:0.5;stroke-miterlimit:4;stroke-dasharray:none;stroke-opacity:1" />
</svg>
