<svg width="332.135mm" height="108.917668mm" viewBox="0 0 332.135 108.917668" xmlns="http://www.w3.org/2000/svg"><g id="svgGroup" stroke-linecap="round" fill-rule="evenodd" font-size="9pt" stroke="#000" stroke-width="0.25mm" fill="none" style="stroke:#000;stroke-width:0.25mm;fill:none"><path d="M 7.62 14 L 21.62 14 L 21.62 0 L 7.62 0 L 7.62 14 Z M 67.6275 14.9525 L 81.6275 14.9525 L 81.6275 0.9525 L 67.6275 0.9525 L 67.6275 14.9525 Z M 247.65 14.9525 L 261.65 14.9525 L 261.65 0.9525 L 247.65 0.9525 L 247.65 14.9525 Z M 29.5275 15.905 L 43.5275 15.905 L 43.5275 1.905 L 29.5275 1.905 L 29.5275 15.905 Z M 48.5775 15.905 L 62.5775 15.905 L 62.5775 1.905 L 48.5775 1.905 L 48.5775 15.905 Z M 266.7 15.905 L 280.7 15.905 L 280.7 1.905 L 266.7 1.905 L 266.7 15.905 Z M 285.75 15.905 L 299.75 15.905 L 299.75 1.905 L 285.75 1.905 L 285.75 15.905 Z M 304.8 15.905 L 318.8 15.905 L 318.8 1.905 L 304.8 1.905 L 304.8 15.905 Z M 3.81 33.05 L 17.81 33.05 L 17.81 19.05 L 3.81 19.05 L 3.81 33.05 Z M 244.7925 34.0025 L 258.7925 34.0025 L 258.7925 20.0025 L 244.7925 20.0025 L 244.7925 34.0025 Z M 30.48 34.955 L 44.48 34.955 L 44.48 20.955 L 30.48 20.955 L 30.48 34.955 Z M 54.2925 34.955 L 68.2925 34.955 L 68.2925 20.955 L 54.2925 20.955 L 54.2925 34.955 Z M 263.8425 34.955 L 277.8425 34.955 L 277.8425 20.955 L 263.8425 20.955 L 263.8425 34.955 Z M 282.8925 34.955 L 296.8925 34.955 L 296.8925 20.955 L 282.8925 20.955 L 282.8925 34.955 Z M 306.705 34.955 L 320.705 34.955 L 320.705 20.955 L 306.705 20.955 L 306.705 34.955 Z M 0 52.1 L 14 52.1 L 14 38.1 L 0 38.1 L 0 52.1 Z M 29.05125 54.005 L 43.05125 54.005 L 43.05125 40.005 L 29.05125 40.005 L 29.05125 54.005 Z M 55.245 54.005 L 69.245 54.005 L 69.245 40.005 L 55.245 40.005 L 55.245 54.005 Z M 252.4125 54.005 L 266.4125 54.005 L 266.4125 40.005 L 252.4125 40.005 L 252.4125 54.005 Z M 271.4625 54.005 L 285.4625 54.005 L 285.4625 40.005 L 271.4625 40.005 L 271.4625 54.005 Z M 302.41875 54.005 L 316.41875 54.005 L 316.41875 40.005 L 302.41875 40.005 L 302.41875 54.005 Z M 29.05125 73.055 L 43.05125 73.055 L 43.05125 59.055 L 29.05125 59.055 L 29.05125 73.055 Z M 60.0075 73.055 L 74.0075 73.055 L 74.0075 59.055 L 60.0075 59.055 L 60.0075 73.055 Z M 246.6975 73.055 L 260.6975 73.055 L 260.6975 59.055 L 246.6975 59.055 L 246.6975 73.055 Z M 265.7475 73.055 L 279.7475 73.055 L 279.7475 59.055 L 265.7475 59.055 L 265.7475 73.055 Z M 291.94125 73.055 L 305.94125 73.055 L 305.94125 59.055 L 291.94125 59.055 L 291.94125 73.055 Z M 318.135 73.055 L 332.135 73.055 L 332.135 59.055 L 318.135 59.055 L 318.135 73.055 Z M 21.9075 92.105 L 35.9075 92.105 L 35.9075 78.105 L 21.9075 78.105 L 21.9075 92.105 Z M 306.705 92.105 L 320.705 92.105 L 320.705 78.105 L 306.705 78.105 L 306.705 92.105 Z M 86.761647 16.916419 L 100.455713 19.827182 L 103.366477 6.133116 L 89.67241 3.222352 L 86.761647 16.916419 Z M 105.395359 20.877137 L 119.089425 23.7879 L 122.000189 10.093834 L 108.306122 7.18307 L 105.395359 20.877137 Z M 124.02907 24.837855 L 137.723137 27.748618 L 140.6339 14.054552 L 126.939834 11.143788 L 124.02907 24.837855 Z M 142.662782 28.798572 L 156.356849 31.709336 L 159.267612 18.01527 L 145.573546 15.104506 L 142.662782 28.798572 Z M 74.415759 33.767807 L 88.109825 36.67857 L 91.020589 22.984504 L 77.326523 20.07374 L 74.415759 33.767807 Z M 93.049471 37.728525 L 106.743537 40.639288 L 109.654301 26.945222 L 95.960234 24.034458 L 93.049471 37.728525 Z M 111.683183 41.689243 L 125.377249 44.600006 L 128.288013 30.90594 L 114.593946 27.995176 L 111.683183 41.689243 Z M 130.316894 45.649961 L 144.010961 48.560724 L 146.921724 34.866658 L 133.227658 31.955894 L 130.316894 45.649961 Z M 75.113469 53.391698 L 88.807536 56.302461 L 91.718299 42.608395 L 78.024233 39.697631 L 75.113469 53.391698 Z M 93.747181 57.352416 L 107.441247 60.263179 L 110.352011 46.569113 L 96.657945 43.658349 L 93.747181 57.352416 Z M 112.380893 61.313133 L 126.074959 64.223897 L 128.985723 50.529831 L 115.291656 47.619067 L 112.380893 61.313133 Z M 131.014604 65.273851 L 144.708671 68.184615 L 147.619434 54.490549 L 133.925368 51.579785 L 131.014604 65.273851 Z M 79.537921 73.807733 L 93.231988 76.718497 L 96.142751 63.02443 L 82.448685 60.113667 L 79.537921 73.807733 Z M 98.171633 77.768451 L 111.865699 80.679215 L 114.776463 66.985148 L 101.082397 64.074385 L 98.171633 77.768451 Z M 116.805345 81.729169 L 130.499411 84.639933 L 133.410175 70.945866 L 119.716108 68.035103 L 116.805345 81.729169 Z M 135.439057 85.689887 L 149.133123 88.60065 L 152.043887 74.906584 L 138.34982 71.99582 L 135.439057 85.689887 Z M 109.117885 99.570738 L 122.811951 102.481502 L 125.722715 88.787435 L 112.028648 85.876672 L 109.117885 99.570738 Z M 139.397667 106.006904 L 153.091734 108.917668 L 156.002497 95.223601 L 142.308431 92.312838 L 139.397667 106.006904 Z M 75.379169 93.373131 L 89.073235 96.283895 L 91.983999 82.589828 L 78.289933 79.679065 L 75.379169 93.373131 Z M 173.226692 29.478137 L 186.920758 26.567374 L 184.009994 12.873307 L 170.315928 15.784071 L 173.226692 29.478137 Z M 191.860403 25.517419 L 205.55447 22.606656 L 202.643706 8.912589 L 188.94964 11.823353 L 191.860403 25.517419 Z M 210.494115 21.556701 L 224.188182 18.645938 L 221.277418 4.951871 L 207.583352 7.862635 L 210.494115 21.556701 Z M 229.127827 17.595985 L 242.821893 14.685222 L 239.91113 0.991155 L 226.217063 3.901919 L 229.127827 17.595985 Z M 169.733924 49.696137 L 183.42799 46.785373 L 180.517226 33.091307 L 166.82316 36.00207 L 169.733924 49.696137 Z M 188.367635 45.735419 L 202.061702 42.824655 L 199.150938 29.130589 L 185.456872 32.041352 L 188.367635 45.735419 Z M 207.001347 41.774701 L 220.695414 38.863937 L 217.78465 25.169871 L 204.090584 28.080634 L 207.001347 41.774701 Z M 225.635059 37.813983 L 239.329125 34.903219 L 236.418362 21.209153 L 222.724295 24.119916 L 225.635059 37.813983 Z M 176.489699 67.735742 L 190.183766 64.824978 L 187.273002 51.130912 L 173.578936 54.041675 L 176.489699 67.735742 Z M 195.123411 63.775024 L 208.817478 60.86426 L 205.906714 47.170194 L 192.212648 50.080957 L 195.123411 63.775024 Z M 213.757123 59.814306 L 227.451189 56.903542 L 224.540426 43.209476 L 210.846359 46.12024 L 213.757123 59.814306 Z M 232.390835 55.853588 L 246.084901 52.942824 L 243.174138 39.248758 L 229.480071 42.159522 L 232.390835 55.853588 Z M 172.065245 88.151775 L 185.759312 85.241012 L 182.848548 71.546945 L 169.154482 74.457709 L 172.065245 88.151775 Z M 190.698957 84.191057 L 204.393024 81.280294 L 201.48226 67.586227 L 187.788194 70.496991 L 190.698957 84.191057 Z M 209.332669 80.23034 L 223.026735 77.319576 L 220.115972 63.62551 L 206.421905 66.536273 L 209.332669 80.23034 Z M 227.966381 76.269622 L 241.660447 73.358858 L 238.749684 59.664792 L 225.055617 62.575555 L 227.966381 76.269622 Z M 192.330462 103.31986 L 206.024528 100.409096 L 203.113765 86.71503 L 189.419698 89.625793 L 192.330462 103.31986 Z M 233.056821 95.636983 L 246.750887 92.72622 L 243.840124 79.032153 L 230.146057 81.942917 L 233.056821 95.636983 Z M 100.656364 98.794527 L 107.503397 100.249909 L 110.622072 85.577694 L 103.775039 84.122313 L 100.656364 98.794527 Z M 184.284764 106.052366 L 191.131798 104.596984 L 188.013122 89.92477 L 181.166089 91.380152 L 184.284764 106.052366 Z M 207.639016 101.088267 L 214.48605 99.632885 L 211.367374 84.960671 L 204.520341 86.416053 L 207.639016 101.088267 Z M 124.010616 103.758626 L 130.857649 105.214008 L 133.976324 90.541794 L 127.129291 89.086412 L 124.010616 103.758626 Z M 293.98075 55.005 L 300.98075 55.005 L 300.98075 40.005 L 293.98075 40.005 L 293.98075 55.005 Z M 317.85675 55.005 L 324.85675 55.005 L 324.85675 40.005 L 317.85675 40.005 L 317.85675 55.005 Z M 20.61325 74.055 L 27.61325 74.055 L 27.61325 59.055 L 20.61325 59.055 L 20.61325 74.055 Z M 44.48925 74.055 L 51.48925 74.055 L 51.48925 59.055 L 44.48925 59.055 L 44.48925 74.055 Z" vector-effect="non-scaling-stroke"/></g></svg>