<?xml version="1.0" encoding="UTF-8" standalone="no"?>
<svg
   width="160.79571481mm"
   height="113.68230523mm"
   viewBox="0 0 160.79571481 113.68230523"
   version="1.1"
   id="svg74"
   sodipodi:docname="kyria.svg"
   inkscape:version="1.1 (c4e8f9e, 2021-05-24)"
   xmlns:inkscape="http://www.inkscape.org/namespaces/inkscape"
   xmlns:sodipodi="http://sodipodi.sourceforge.net/DTD/sodipodi-0.dtd"
   xmlns="http://www.w3.org/2000/svg"
   xmlns:svg="http://www.w3.org/2000/svg">
  <defs
     id="defs78" />
  <sodipodi:namedview
     id="namedview76"
     pagecolor="#ffffff"
     bordercolor="#666666"
     borderopacity="1.0"
     inkscape:pageshadow="2"
     inkscape:pageopacity="0.0"
     inkscape:pagecheckerboard="0"
     inkscape:document-units="mm"
     showgrid="false"
     inkscape:zoom="0.70710678"
     inkscape:cx="382.54477"
     inkscape:cy="255.97265"
     inkscape:window-width="1298"
     inkscape:window-height="830"
     inkscape:window-x="43"
     inkscape:window-y="25"
     inkscape:window-maximized="0"
     inkscape:current-layer="svg74" />
  <circle
     cx="140.74571"
     cy="58.1366"
     r="1.2"
     id="circle2"
     style="fill:none;stroke:#000000;stroke-width:0.5;stroke-miterlimit:4;stroke-dasharray:none;stroke-opacity:1;opacity:1" />
  <circle
     cx="124.27071"
     cy="17.861591"
     r="1.2"
     id="circle4"
     style="fill:none;stroke:#000000;stroke-width:0.5;stroke-miterlimit:4;stroke-dasharray:none;stroke-opacity:1;opacity:1" />
  <circle
     cx="73.844574"
     cy="66.030975"
     r="1.2"
     id="circle6"
     style="fill:none;stroke:#000000;stroke-width:0.5;stroke-miterlimit:4;stroke-dasharray:none;stroke-opacity:1;opacity:1" />
  <circle
     cx="29.91346"
     cy="84.227837"
     r="1.2"
     id="circle8"
     style="fill:none;stroke:#000000;stroke-width:0.5;stroke-miterlimit:4;stroke-dasharray:none;stroke-opacity:1;opacity:1" />
  <circle
     cx="64.545715"
     cy="7.5365906"
     r="1.2"
     id="circle10"
     style="fill:none;stroke:#000000;stroke-width:0.5;stroke-miterlimit:4;stroke-dasharray:none;stroke-opacity:1;opacity:1" />
  <circle
     cx="118.05894"
     cy="67.361588"
     r="1.2"
     id="circle12"
     style="fill:none;stroke:#000000;stroke-width:0.5;stroke-miterlimit:4;stroke-dasharray:none;stroke-opacity:1;opacity:1" />
  <circle
     cx="140.74571"
     cy="20.0366"
     r="1.2"
     id="circle14"
     style="fill:none;stroke:#000000;stroke-width:0.5;stroke-miterlimit:4;stroke-dasharray:none;stroke-opacity:1;opacity:1" />
  <path
     d="m 159.79571,78.18659 h -43.38589 a 1,1 0 0 0 -1,1 v 5.569828 a 1,1 0 0 1 -1,1 H 85.834823 A 71.349558,71.349558 0 0 0 35.383067,106.65422 l -6.735192,6.73519 a 1,1 0 0 1 -1.414213,0 L 0.29289322,86.448644 a 1,1 0 0 1 0,-1.414214 L 7.0280853,78.299238 A 111.44956,111.44956 0 0 1 44.120008,53.757642 1,1 0 0 0 44.745715,52.830332 V 6.2353721 a 1,1 0 0 1 0.743193,-0.9664626 157.10598,157.10598 0 0 1 93.804542,4.1060179 157.10923,157.10923 0 0 1 3.5196,1.3214556 157.10598,157.10598 0 0 1 17.45645,8.05582 1,1 0 0 1 0.52621,0.88064 V 77.18659 a 1,1 0 0 1 -1,1 z"
     id="path16"
     style="fill:none;stroke:#000000;stroke-width:0.5;stroke-miterlimit:4;stroke-dasharray:none;stroke-opacity:1;opacity:1" />
  <path
     d="m 108.88482,83.631418 a 0.3,0.3 0 0 1 -0.3,0.3 h -7.4 a 0.3,0.3 0 0 1 -0.3,-0.3 v -1.15 a 0.3,0.3 0 0 0 -0.3,-0.3 h -2.349997 a 0.3,0.3 0 0 1 -0.3,-0.3 v -13.3 a 0.3,0.3 0 0 1 0.3,-0.3 h 2.349997 a 0.3,0.3 0 0 0 0.3,-0.3 v -1.15 a 0.3,0.3 0 0 1 0.3,-0.3 h 7.4 a 0.3,0.3 0 0 1 0.3,0.3 v 1.15 a 0.3,0.3 0 0 0 0.3,0.3 h 2.35 a 0.3,0.3 0 0 1 0.3,0.3 v 13.3 a 0.3,0.3 0 0 1 -0.3,0.3 h -2.35 a 0.3,0.3 0 0 0 -0.3,0.3 z"
     id="path22"
     style="fill:none;stroke:#000000;stroke-width:0.5;stroke-miterlimit:4;stroke-dasharray:none;stroke-opacity:1;opacity:1" />
  <path
     d="m 86.170715,43.01159 v 13.3 a 0.3,0.3 0 0 0 0.3,0.3 h 13.3 a 0.3,0.3 0 0 0 0.299995,-0.3 v -13.3 a 0.3,0.3 0 0 0 -0.299995,-0.3 h -13.3 a 0.3,0.3 0 0 0 -0.3,0.3 z"
     id="path26"
     style="fill:none;stroke:#000000;stroke-width:0.5;stroke-miterlimit:4;stroke-dasharray:none;stroke-opacity:1;opacity:1" />
  <path
     d="M 100.07071,18.21159 V 4.9115904 a 0.3,0.3 0 0 0 -0.299995,-0.3 h -13.3 a 0.3,0.3 0 0 0 -0.3,0.3 V 18.21159 a 0.3,0.3 0 0 0 0.3,0.3 h 13.3 a 0.3,0.3 0 0 0 0.299995,-0.3 z"
     id="path28"
     style="fill:none;stroke:#000000;stroke-width:0.5;stroke-miterlimit:4;stroke-dasharray:none;stroke-opacity:1;opacity:1" />
  <path
     d="m 48.070715,52.01159 v 13.3 a 0.3,0.3 0 0 0 0.3,0.3 h 13.3 a 0.3,0.3 0 0 0 0.3,-0.3 v -13.3 a 0.3,0.3 0 0 0 -0.3,-0.3 h -13.3 a 0.3,0.3 0 0 0 -0.3,0.3 z"
     id="path30"
     style="fill:none;stroke:#000000;stroke-width:0.5;stroke-miterlimit:4;stroke-dasharray:none;stroke-opacity:1;opacity:1" />
  <path
     d="m 78.884823,68.581418 v 13.3 a 0.3,0.3 0 0 0 0.3,0.3 h 13.3 a 0.3,0.3 0 0 0 0.3,-0.3 v -13.3 a 0.3,0.3 0 0 0 -0.3,-0.3 h -13.3 a 0.3,0.3 0 0 0 -0.3,0.3 z"
     id="path32"
     style="fill:none;stroke:#000000;stroke-width:0.5;stroke-miterlimit:4;stroke-dasharray:none;stroke-opacity:1;opacity:1" />
  <path
     d="m 105.52071,24.51159 h 13.3 a 0.3,0.3 0 0 0 0.3,-0.3 v -13.3 a 0.3,0.3 0 0 0 -0.3,-0.3 h -13.3 a 0.3,0.3 0 0 0 -0.3,0.3 v 13.3 a 0.3,0.3 0 0 0 0.3,0.3 z"
     id="path34"
     style="fill:none;stroke:#000000;stroke-width:0.5;stroke-miterlimit:4;stroke-dasharray:none;stroke-opacity:1;opacity:1" />
  <path
     d="m 137.87071,41.66159 h -13.3 a 0.3,0.3 0 0 0 -0.3,0.3 v 13.3 a 0.3,0.3 0 0 0 0.3,0.3 h 13.3 a 0.3,0.3 0 0 0 0.3,-0.3 v -13.3 a 0.3,0.3 0 0 0 -0.3,-0.3 z"
     id="path36"
     style="fill:none;stroke:#000000;stroke-width:0.5;stroke-miterlimit:4;stroke-dasharray:none;stroke-opacity:1;opacity:1" />
  <path
     d="m 124.27071,61.01159 v 13.3 a 0.3,0.3 0 0 0 0.3,0.3 h 13.3 a 0.3,0.3 0 0 0 0.3,-0.3 v -13.3 a 0.3,0.3 0 0 0 -0.3,-0.3 h -13.3 a 0.3,0.3 0 0 0 -0.3,0.3 z"
     id="path38"
     style="fill:none;stroke:#000000;stroke-width:0.5;stroke-miterlimit:4;stroke-dasharray:none;stroke-opacity:1;opacity:1" />
  <path
     d="m 137.87071,22.61159 h -13.3 a 0.3,0.3 0 0 0 -0.3,0.3 v 13.3 a 0.3,0.3 0 0 0 0.3,0.3 h 13.3 a 0.3,0.3 0 0 0 0.3,-0.3 v -13.3 a 0.3,0.3 0 0 0 -0.3,-0.3 z"
     id="path40"
     style="fill:none;stroke:#000000;stroke-width:0.5;stroke-miterlimit:4;stroke-dasharray:none;stroke-opacity:1;opacity:1" />
  <path
     d="m 67.420715,25.01159 h 13.3 a 0.3,0.3 0 0 0 0.3,-0.3 v -13.3 a 0.3,0.3 0 0 0 -0.3,-0.3 h -13.3 a 0.3,0.3 0 0 0 -0.3,0.3 v 13.3 a 0.3,0.3 0 0 0 0.3,0.3 z"
     id="path42"
     style="fill:none;stroke:#000000;stroke-width:0.5;stroke-miterlimit:4;stroke-dasharray:none;stroke-opacity:1;opacity:1" />
  <path
     d="m 67.420715,44.06159 h 13.3 a 0.3,0.3 0 0 0 0.3,-0.3 v -13.3 a 0.3,0.3 0 0 0 -0.3,-0.3 h -13.3 a 0.3,0.3 0 0 0 -0.3,0.3 v 13.3 a 0.3,0.3 0 0 0 0.3,0.3 z"
     id="path44"
     style="fill:none;stroke:#000000;stroke-width:0.5;stroke-miterlimit:4;stroke-dasharray:none;stroke-opacity:1;opacity:1" />
  <path
     d="m 100.07071,37.26159 v -13.3 a 0.3,0.3 0 0 0 -0.299995,-0.3 h -13.3 a 0.3,0.3 0 0 0 -0.3,0.3 v 13.3 a 0.3,0.3 0 0 0 0.3,0.3 h 13.3 a 0.3,0.3 0 0 0 0.299995,-0.3 z"
     id="path46"
     style="fill:none;stroke:#000000;stroke-width:0.5;stroke-miterlimit:4;stroke-dasharray:none;stroke-opacity:1;opacity:1" />
  <path
     d="m 48.070715,32.96159 v 13.3 a 0.3,0.3 0 0 0 0.3,0.3 h 13.3 a 0.3,0.3 0 0 0 0.3,-0.3 v -13.3 a 0.3,0.3 0 0 0 -0.3,-0.3 h -13.3 a 0.3,0.3 0 0 0 -0.3,0.3 z"
     id="path48"
     style="fill:none;stroke:#000000;stroke-width:0.5;stroke-miterlimit:4;stroke-dasharray:none;stroke-opacity:1;opacity:1" />
  <path
     d="M 73.07846,82.645841 69.636166,69.799027 a 0.3,0.3 0 0 0 -0.367423,-0.212132 l -12.846814,3.442293 a 0.3,0.3 0 0 0 -0.212132,0.367424 l 3.442294,12.846813 a 0.3,0.3 0 0 0 0.367423,0.212132 l 12.846814,-3.442293 a 0.3,0.3 0 0 0 0.212132,-0.367423 z"
     id="path50"
     style="fill:none;stroke:#000000;stroke-width:0.5;stroke-miterlimit:4;stroke-dasharray:none;stroke-opacity:1;opacity:1" />
  <path
     d="m 105.52071,43.56159 h 13.3 a 0.3,0.3 0 0 0 0.3,-0.3 v -13.3 a 0.3,0.3 0 0 0 -0.3,-0.3 h -13.3 a 0.3,0.3 0 0 0 -0.3,0.3 v 13.3 a 0.3,0.3 0 0 0 0.3,0.3 z"
     id="path52"
     style="fill:none;stroke:#000000;stroke-width:0.5;stroke-miterlimit:4;stroke-dasharray:none;stroke-opacity:1;opacity:1" />
  <path
     d="m 143.32071,41.9616 v 13.3 a 0.3,0.3 0 0 0 0.3,0.3 h 13.3 a 0.3,0.3 0 0 0 0.3,-0.3 v -13.3 a 0.3,0.3 0 0 0 -0.3,-0.3 h -13.3 a 0.3,0.3 0 0 0 -0.3,0.3 z"
     id="path54"
     style="fill:none;stroke:#000000;stroke-width:0.5;stroke-miterlimit:4;stroke-dasharray:none;stroke-opacity:1;opacity:1" />
  <path
     d="m 18.32261,99.423488 9.404521,9.404522 a 0.3,0.3 0 0 0 0.424264,0 l 9.404521,-9.404522 a 0.3,0.3 0 0 0 0,-0.42426 l -9.404521,-9.404523 a 0.3,0.3 0 0 0 -0.424264,0 l -9.404521,9.404523 a 0.3,0.3 0 0 0 0,0.42426 z"
     id="path54-3"
     style="opacity:1;fill:none;stroke:#000000;stroke-width:0.5;stroke-miterlimit:4;stroke-dasharray:none;stroke-opacity:1" />
  <path
     d="m 105.22071,49.01159 v 13.3 a 0.3,0.3 0 0 0 0.3,0.3 h 13.3 a 0.3,0.3 0 0 0 0.3,-0.3 v -13.3 a 0.3,0.3 0 0 0 -0.3,-0.3 h -13.3 a 0.3,0.3 0 0 0 -0.3,0.3 z"
     id="path56"
     style="fill:none;stroke:#000000;stroke-width:0.5;stroke-miterlimit:4;stroke-dasharray:none;stroke-opacity:1;opacity:1" />
  <path
     d="m 48.070715,13.91159 v 13.3 a 0.3,0.3 0 0 0 0.3,0.3 h 13.3 a 0.3,0.3 0 0 0 0.3,-0.3 v -13.3 a 0.3,0.3 0 0 0 -0.3,-0.3 h -13.3 a 0.3,0.3 0 0 0 -0.3,0.3 z"
     id="path58"
     style="fill:none;stroke:#000000;stroke-width:0.5;stroke-miterlimit:4;stroke-dasharray:none;stroke-opacity:1;opacity:1" />
  <path
     d="m 67.120715,49.51159 v 13.3 a 0.3,0.3 0 0 0 0.3,0.3 h 13.3 a 0.3,0.3 0 0 0 0.3,-0.3 v -13.3 a 0.3,0.3 0 0 0 -0.3,-0.3 h -13.3 a 0.3,0.3 0 0 0 -0.3,0.3 z"
     id="path60"
     style="fill:none;stroke:#000000;stroke-width:0.5;stroke-miterlimit:4;stroke-dasharray:none;stroke-opacity:1;opacity:1" />
  <path
     d="m 38.909918,89.729656 a 0.3,0.3 0 0 1 -0.109808,0.409807 l -0.995929,0.575 a 0.3,0.3 0 0 0 -0.109808,0.409808 l 1.7,2.944486 a 0.3,0.3 0 0 0 0.409808,0.109808 l 0.995929,-0.575 a 0.3,0.3 0 0 1 0.409808,0.109808 l 0.99375,1.721225 a 0.3,0.3 0 0 0 0.409808,0.109808 l 14.765733,-8.525 a 0.3,0.3 0 0 0 0.109807,-0.409808 l -4.2875,-7.426168 a 0.3,0.3 0 0 0 -0.409807,-0.109807 l -2.72798,1.575 a 0.3,0.3 0 0 1 -0.409808,-0.109808 l -7,-12.124356 a 0.3,0.3 0 0 1 0.109808,-0.409807 l 2.72798,-1.575 a 0.3,0.3 0 0 0 0.109807,-0.409808 l -4.2875,-7.426168 a 0.3,0.3 0 0 0 -0.409807,-0.109807 l -14.765733,8.525 a 0.3,0.3 0 0 0 -0.109808,0.409807 l 0.99375,1.721226 a 0.3,0.3 0 0 1 -0.109808,0.409807 l -0.995929,0.575 a 0.3,0.3 0 0 0 -0.109808,0.409808 l 1.7,2.944486 a 0.3,0.3 0 0 0 0.409808,0.109808 l 0.995929,-0.575 a 0.3,0.3 0 0 1 0.409808,0.109808 z"
     id="path62"
     style="fill:none;stroke:#000000;stroke-width:0.5;stroke-miterlimit:4;stroke-dasharray:none;stroke-opacity:1;opacity:1" />
  <path
     d="m 143.32,22.911951 v 13.300001 a 0.3,0.3 0 0 0 0.3,0.299999 h 13.3 a 0.3,0.3 0 0 0 0.3,-0.299999 v -13.3 a 0.3,0.3 0 0 0 -0.3,-0.3 h -13.3 a 0.3,0.3 0 0 0 -0.3,0.299999 z"
     id="path1374"
     style="opacity:1;fill:none;stroke:#000000;stroke-width:0.5;stroke-miterlimit:4;stroke-dasharray:none;stroke-opacity:1" />
  <path
     d="m 4.8537888,85.953824 9.4045212,9.404521 a 0.3,0.3 0 0 0 0.424263,0 l 9.404521,-9.404521 a 0.3,0.3 0 0 0 0,-0.424263 l -9.40452,-9.404521 a 0.3,0.3 0 0 0 -0.424264,0 l -9.4045205,9.404521 a 0.3,0.3 0 0 0 -7e-7,0.424263 z"
     id="path1376"
     style="opacity:1;fill:none;stroke:#000000;stroke-width:0.5;stroke-miterlimit:4;stroke-dasharray:none;stroke-opacity:1" />
  <path
     d="m 143.31948,61.011367 v 13.300001 a 0.3,0.3 0 0 0 0.3,0.299999 h 13.3 a 0.3,0.3 0 0 0 0.3,-0.299999 v -13.3 a 0.3,0.3 0 0 0 -0.3,-0.3 h -13.3 a 0.3,0.3 0 0 0 -0.3,0.299999 z"
     id="path1699"
     style="opacity:1;fill:none;stroke:#000000;stroke-width:0.5;stroke-miterlimit:4;stroke-dasharray:none;stroke-opacity:1" />
</svg>
