<svg width="337.185mm" height="112.665mm" viewBox="0 0 337.185 112.665" xmlns="http://www.w3.org/2000/svg"><g id="svgGroup" stroke-linecap="round" fill-rule="evenodd" font-size="9pt" stroke="#000" stroke-width="0.25mm" fill="none" style="stroke:#000;stroke-width:0.25mm;fill:none"><path d="M 0 112.665 L 337.185 112.665 L 337.185 0 L 0 0 L 0 112.665 Z M 51.603 4.43 L 64.603 4.43 A 0.5 0.5 0 0 1 65.103 4.93 L 65.103 17.93 A 0.5 0.5 0 0 1 64.603 18.43 L 51.603 18.43 A 0.5 0.5 0 0 1 51.103 17.93 L 51.103 4.93 A 0.5 0.5 0 0 1 51.603 4.43 Z M 10.645 2.525 L 23.645 2.525 A 0.5 0.5 0 0 1 24.145 3.025 L 24.145 16.025 A 0.5 0.5 0 0 1 23.645 16.525 L 10.645 16.525 A 0.5 0.5 0 0 1 10.145 16.025 L 10.145 3.025 A 0.5 0.5 0 0 1 10.645 2.525 Z M 70.653 3.477 L 83.653 3.477 A 0.5 0.5 0 0 1 84.153 3.977 L 84.153 16.978 A 0.5 0.5 0 0 1 83.653 17.478 L 70.653 17.478 A 0.5 0.5 0 0 1 70.153 16.978 L 70.153 3.977 A 0.5 0.5 0 0 1 70.653 3.477 Z M 250.675 3.477 L 263.675 3.477 A 0.5 0.5 0 0 1 264.175 3.977 L 264.175 16.978 A 0.5 0.5 0 0 1 263.675 17.478 L 250.675 17.478 A 0.5 0.5 0 0 1 250.175 16.978 L 250.175 3.977 A 0.5 0.5 0 0 1 250.675 3.477 Z M 32.552 4.43 L 45.552 4.43 A 0.5 0.5 0 0 1 46.052 4.93 L 46.052 17.93 A 0.5 0.5 0 0 1 45.552 18.43 L 32.552 18.43 A 0.5 0.5 0 0 1 32.052 17.93 L 32.052 4.93 A 0.5 0.5 0 0 1 32.552 4.43 Z M 269.725 4.43 L 282.725 4.43 A 0.5 0.5 0 0 1 283.225 4.93 L 283.225 17.93 A 0.5 0.5 0 0 1 282.725 18.43 L 269.725 18.43 A 0.5 0.5 0 0 1 269.225 17.93 L 269.225 4.93 A 0.5 0.5 0 0 1 269.725 4.43 Z M 288.775 4.43 L 301.775 4.43 A 0.5 0.5 0 0 1 302.275 4.93 L 302.275 17.93 A 0.5 0.5 0 0 1 301.775 18.43 L 288.775 18.43 A 0.5 0.5 0 0 1 288.275 17.93 L 288.275 4.93 A 0.5 0.5 0 0 1 288.775 4.43 Z M 307.825 4.43 L 320.825 4.43 A 0.5 0.5 0 0 1 321.325 4.93 L 321.325 17.93 A 0.5 0.5 0 0 1 320.825 18.43 L 307.825 18.43 A 0.5 0.5 0 0 1 307.325 17.93 L 307.325 4.93 A 0.5 0.5 0 0 1 307.825 4.43 Z M 6.835 21.575 L 19.835 21.575 A 0.5 0.5 0 0 1 20.335 22.075 L 20.335 35.075 A 0.5 0.5 0 0 1 19.835 35.575 L 6.835 35.575 A 0.5 0.5 0 0 1 6.335 35.075 L 6.335 22.075 A 0.5 0.5 0 0 1 6.835 21.575 Z M 247.818 22.528 L 260.818 22.528 A 0.5 0.5 0 0 1 261.318 23.028 L 261.318 36.028 A 0.5 0.5 0 0 1 260.818 36.528 L 247.818 36.528 A 0.5 0.5 0 0 1 247.318 36.028 L 247.318 23.028 A 0.5 0.5 0 0 1 247.818 22.528 Z M 33.505 23.48 L 46.505 23.48 A 0.5 0.5 0 0 1 47.005 23.98 L 47.005 36.98 A 0.5 0.5 0 0 1 46.505 37.48 L 33.505 37.48 A 0.5 0.5 0 0 1 33.005 36.98 L 33.005 23.98 A 0.5 0.5 0 0 1 33.505 23.48 Z M 57.317 23.48 L 70.318 23.48 A 0.5 0.5 0 0 1 70.818 23.98 L 70.818 36.98 A 0.5 0.5 0 0 1 70.318 37.48 L 57.317 37.48 A 0.5 0.5 0 0 1 56.817 36.98 L 56.817 23.98 A 0.5 0.5 0 0 1 57.317 23.48 Z M 266.868 23.48 L 279.868 23.48 A 0.5 0.5 0 0 1 280.368 23.98 L 280.368 36.98 A 0.5 0.5 0 0 1 279.868 37.48 L 266.868 37.48 A 0.5 0.5 0 0 1 266.368 36.98 L 266.368 23.98 A 0.5 0.5 0 0 1 266.868 23.48 Z M 285.917 23.48 L 298.917 23.48 A 0.5 0.5 0 0 1 299.417 23.98 L 299.417 36.98 A 0.5 0.5 0 0 1 298.917 37.48 L 285.917 37.48 A 0.5 0.5 0 0 1 285.417 36.98 L 285.417 23.98 A 0.5 0.5 0 0 1 285.917 23.48 Z M 309.73 23.48 L 322.73 23.48 A 0.5 0.5 0 0 1 323.23 23.98 L 323.23 36.98 A 0.5 0.5 0 0 1 322.73 37.48 L 309.73 37.48 A 0.5 0.5 0 0 1 309.23 36.98 L 309.23 23.98 A 0.5 0.5 0 0 1 309.73 23.48 Z M 3.025 40.625 L 16.025 40.625 A 0.5 0.5 0 0 1 16.525 41.125 L 16.525 54.125 A 0.5 0.5 0 0 1 16.025 54.625 L 3.025 54.625 A 0.5 0.5 0 0 1 2.525 54.125 L 2.525 41.125 A 0.5 0.5 0 0 1 3.025 40.625 Z M 32.076 42.53 L 45.076 42.53 A 0.5 0.5 0 0 1 45.576 43.03 L 45.576 56.03 A 0.5 0.5 0 0 1 45.076 56.53 L 32.076 56.53 A 0.5 0.5 0 0 1 31.576 56.03 L 31.576 43.03 A 0.5 0.5 0 0 1 32.076 42.53 Z M 58.27 42.53 L 71.27 42.53 A 0.5 0.5 0 0 1 71.77 43.03 L 71.77 56.03 A 0.5 0.5 0 0 1 71.27 56.53 L 58.27 56.53 A 0.5 0.5 0 0 1 57.77 56.03 L 57.77 43.03 A 0.5 0.5 0 0 1 58.27 42.53 Z M 255.438 42.53 L 268.438 42.53 A 0.5 0.5 0 0 1 268.938 43.03 L 268.938 56.03 A 0.5 0.5 0 0 1 268.438 56.53 L 255.438 56.53 A 0.5 0.5 0 0 1 254.938 56.03 L 254.938 43.03 A 0.5 0.5 0 0 1 255.438 42.53 Z M 274.488 42.53 L 287.488 42.53 A 0.5 0.5 0 0 1 287.988 43.03 L 287.988 56.03 A 0.5 0.5 0 0 1 287.488 56.53 L 274.488 56.53 A 0.5 0.5 0 0 1 273.988 56.03 L 273.988 43.03 A 0.5 0.5 0 0 1 274.488 42.53 Z M 305.444 42.53 L 318.444 42.53 A 0.5 0.5 0 0 1 318.944 43.03 L 318.944 56.03 A 0.5 0.5 0 0 1 318.444 56.53 L 305.444 56.53 A 0.5 0.5 0 0 1 304.944 56.03 L 304.944 43.03 A 0.5 0.5 0 0 1 305.444 42.53 Z M 32.076 61.58 L 45.076 61.58 A 0.5 0.5 0 0 1 45.576 62.08 L 45.576 75.08 A 0.5 0.5 0 0 1 45.076 75.58 L 32.076 75.58 A 0.5 0.5 0 0 1 31.576 75.08 L 31.576 62.08 A 0.5 0.5 0 0 1 32.076 61.58 Z M 63.033 61.58 L 76.033 61.58 A 0.5 0.5 0 0 1 76.533 62.08 L 76.533 75.08 A 0.5 0.5 0 0 1 76.033 75.58 L 63.033 75.58 A 0.5 0.5 0 0 1 62.533 75.08 L 62.533 62.08 A 0.5 0.5 0 0 1 63.033 61.58 Z M 249.723 61.58 L 262.722 61.58 A 0.5 0.5 0 0 1 263.222 62.08 L 263.222 75.08 A 0.5 0.5 0 0 1 262.722 75.58 L 249.723 75.58 A 0.5 0.5 0 0 1 249.223 75.08 L 249.223 62.08 A 0.5 0.5 0 0 1 249.723 61.58 Z M 268.773 61.58 L 281.773 61.58 A 0.5 0.5 0 0 1 282.273 62.08 L 282.273 75.08 A 0.5 0.5 0 0 1 281.773 75.58 L 268.773 75.58 A 0.5 0.5 0 0 1 268.273 75.08 L 268.273 62.08 A 0.5 0.5 0 0 1 268.773 61.58 Z M 294.966 61.58 L 307.966 61.58 A 0.5 0.5 0 0 1 308.466 62.08 L 308.466 75.08 A 0.5 0.5 0 0 1 307.966 75.58 L 294.966 75.58 A 0.5 0.5 0 0 1 294.466 75.08 L 294.466 62.08 A 0.5 0.5 0 0 1 294.966 61.58 Z M 321.16 61.58 L 334.16 61.58 A 0.5 0.5 0 0 1 334.66 62.08 L 334.66 75.08 A 0.5 0.5 0 0 1 334.16 75.58 L 321.16 75.58 A 0.5 0.5 0 0 1 320.66 75.08 L 320.66 62.08 A 0.5 0.5 0 0 1 321.16 61.58 Z M 24.932 80.63 L 37.933 80.63 A 0.5 0.5 0 0 1 38.433 81.13 L 38.433 94.13 A 0.5 0.5 0 0 1 37.933 94.63 L 24.932 94.63 A 0.5 0.5 0 0 1 24.432 94.13 L 24.432 81.13 A 0.5 0.5 0 0 1 24.932 80.63 Z M 309.73 80.63 L 322.73 80.63 A 0.5 0.5 0 0 1 323.23 81.13 L 323.23 94.13 A 0.5 0.5 0 0 1 322.73 94.63 L 309.73 94.63 A 0.5 0.5 0 0 1 309.23 94.13 L 309.23 81.13 A 0.5 0.5 0 0 1 309.73 80.63 Z M 92.686 5.851 L 105.402 8.554 A 0.5 0.5 0 0 1 105.788 9.147 L 103.085 21.863 A 0.5 0.5 0 0 1 102.492 22.248 L 89.776 19.545 A 0.5 0.5 0 0 1 89.391 18.952 L 92.093 6.236 A 0.5 0.5 0 0 1 92.686 5.851 Z M 111.32 9.812 L 124.036 12.515 A 0.5 0.5 0 0 1 124.421 13.108 L 121.718 25.824 A 0.5 0.5 0 0 1 121.125 26.209 L 108.409 23.506 A 0.5 0.5 0 0 1 108.024 22.913 L 110.727 10.197 A 0.5 0.5 0 0 1 111.32 9.812 Z M 129.954 13.773 L 142.67 16.476 A 0.5 0.5 0 0 1 143.055 17.069 L 140.352 29.785 A 0.5 0.5 0 0 1 139.759 30.17 L 127.043 27.467 A 0.5 0.5 0 0 1 126.658 26.874 L 129.361 14.158 A 0.5 0.5 0 0 1 129.954 13.773 Z M 98.974 26.663 L 111.69 29.366 A 0.5 0.5 0 0 1 112.075 29.959 L 109.372 42.675 A 0.5 0.5 0 0 1 108.779 43.06 L 96.064 40.357 A 0.5 0.5 0 0 1 95.678 39.764 L 98.381 27.049 A 0.5 0.5 0 0 1 98.974 26.663 Z M 117.608 30.624 L 130.324 33.327 A 0.5 0.5 0 0 1 130.709 33.92 L 128.006 46.636 A 0.5 0.5 0 0 1 127.413 47.021 L 114.697 44.318 A 0.5 0.5 0 0 1 114.312 43.725 L 117.015 31.009 A 0.5 0.5 0 0 1 117.608 30.624 Z M 81.038 42.327 L 93.754 45.029 A 0.5 0.5 0 0 1 94.139 45.622 L 91.436 58.338 A 0.5 0.5 0 0 1 90.843 58.724 L 78.128 56.021 A 0.5 0.5 0 0 1 77.742 55.428 L 80.445 42.712 A 0.5 0.5 0 0 1 81.038 42.327 Z M 99.672 46.287 L 112.388 48.99 A 0.5 0.5 0 0 1 112.773 49.583 L 110.07 62.299 A 0.5 0.5 0 0 1 109.477 62.684 L 96.761 59.981 A 0.5 0.5 0 0 1 96.376 59.388 L 99.079 46.672 A 0.5 0.5 0 0 1 99.672 46.287 Z M 136.939 54.209 L 149.655 56.912 A 0.5 0.5 0 0 1 150.04 57.505 L 147.338 70.221 A 0.5 0.5 0 0 1 146.745 70.606 L 134.029 67.903 A 0.5 0.5 0 0 1 133.644 67.31 L 136.346 54.594 A 0.5 0.5 0 0 1 136.939 54.209 Z M 85.463 62.743 L 98.179 65.445 A 0.5 0.5 0 0 1 98.564 66.039 L 95.861 78.754 A 0.5 0.5 0 0 1 95.268 79.14 L 82.552 76.437 A 0.5 0.5 0 0 1 82.167 75.844 L 84.87 63.128 A 0.5 0.5 0 0 1 85.463 62.743 Z M 104.096 66.703 L 116.812 69.406 A 0.5 0.5 0 0 1 117.198 69.999 L 114.495 82.715 A 0.5 0.5 0 0 1 113.902 83.1 L 101.186 80.397 A 0.5 0.5 0 0 1 100.801 79.804 L 103.503 67.088 A 0.5 0.5 0 0 1 104.096 66.703 Z M 122.73 70.664 L 135.446 73.367 A 0.5 0.5 0 0 1 135.831 73.96 L 133.128 86.676 A 0.5 0.5 0 0 1 132.535 87.061 L 119.819 84.358 A 0.5 0.5 0 0 1 119.434 83.765 L 122.137 71.049 A 0.5 0.5 0 0 1 122.73 70.664 Z M 141.364 74.625 L 154.08 77.328 A 0.5 0.5 0 0 1 154.465 77.921 L 151.762 90.637 A 0.5 0.5 0 0 1 151.169 91.022 L 138.453 88.319 A 0.5 0.5 0 0 1 138.068 87.726 L 140.771 75.01 A 0.5 0.5 0 0 1 141.364 74.625 Z M 115.043 88.506 L 127.759 91.208 A 0.5 0.5 0 0 1 128.144 91.802 L 125.441 104.517 A 0.5 0.5 0 0 1 124.848 104.903 L 112.132 102.2 A 0.5 0.5 0 0 1 111.747 101.607 L 114.45 88.891 A 0.5 0.5 0 0 1 115.043 88.506 Z M 81.304 82.308 L 94.02 85.011 A 0.5 0.5 0 0 1 94.405 85.604 L 91.702 98.32 A 0.5 0.5 0 0 1 91.109 98.705 L 78.393 96.002 A 0.5 0.5 0 0 1 78.008 95.409 L 80.711 82.693 A 0.5 0.5 0 0 1 81.304 82.308 Z M 210.597 10.284 L 223.313 7.581 A 0.5 0.5 0 0 1 223.906 7.966 L 226.609 20.682 A 0.5 0.5 0 0 1 226.224 21.275 L 213.508 23.978 A 0.5 0.5 0 0 1 212.915 23.593 L 210.212 10.877 A 0.5 0.5 0 0 1 210.597 10.284 Z M 229.231 6.323 L 241.947 3.62 A 0.5 0.5 0 0 1 242.54 4.005 L 245.243 16.721 A 0.5 0.5 0 0 1 244.858 17.314 L 232.142 20.017 A 0.5 0.5 0 0 1 231.549 19.632 L 228.846 6.916 A 0.5 0.5 0 0 1 229.231 6.323 Z M 188.471 34.462 L 201.187 31.76 A 0.5 0.5 0 0 1 201.78 32.145 L 204.483 44.861 A 0.5 0.5 0 0 1 204.098 45.454 L 191.382 48.156 A 0.5 0.5 0 0 1 190.789 47.771 L 188.086 35.055 A 0.5 0.5 0 0 1 188.471 34.462 Z M 176.593 56.463 L 189.309 53.76 A 0.5 0.5 0 0 1 189.902 54.145 L 192.605 66.861 A 0.5 0.5 0 0 1 192.22 67.454 L 179.504 70.157 A 0.5 0.5 0 0 1 178.911 69.772 L 176.208 57.056 A 0.5 0.5 0 0 1 176.593 56.463 Z M 195.227 52.502 L 207.943 49.799 A 0.5 0.5 0 0 1 208.536 50.184 L 211.239 62.9 A 0.5 0.5 0 0 1 210.853 63.493 L 198.137 66.196 A 0.5 0.5 0 0 1 197.544 65.811 L 194.842 53.095 A 0.5 0.5 0 0 1 195.227 52.502 Z M 213.86 48.541 L 226.576 45.838 A 0.5 0.5 0 0 1 227.169 46.224 L 229.872 58.939 A 0.5 0.5 0 0 1 229.487 59.532 L 216.771 62.235 A 0.5 0.5 0 0 1 216.178 61.85 L 213.475 49.134 A 0.5 0.5 0 0 1 213.86 48.541 Z M 232.494 44.581 L 245.21 41.878 A 0.5 0.5 0 0 1 245.803 42.263 L 248.506 54.979 A 0.5 0.5 0 0 1 248.121 55.572 L 235.405 58.275 A 0.5 0.5 0 0 1 234.812 57.89 L 232.109 45.174 A 0.5 0.5 0 0 1 232.494 44.581 Z M 172.169 76.879 L 184.884 74.176 A 0.5 0.5 0 0 1 185.478 74.561 L 188.18 87.277 A 0.5 0.5 0 0 1 187.795 87.87 L 175.079 90.573 A 0.5 0.5 0 0 1 174.486 90.188 L 171.783 77.472 A 0.5 0.5 0 0 1 172.169 76.879 Z M 190.802 72.918 L 203.518 70.215 A 0.5 0.5 0 0 1 204.111 70.6 L 206.814 83.316 A 0.5 0.5 0 0 1 206.429 83.909 L 193.713 86.612 A 0.5 0.5 0 0 1 193.12 86.227 L 190.417 73.511 A 0.5 0.5 0 0 1 190.802 72.918 Z M 209.436 68.957 L 222.152 66.254 A 0.5 0.5 0 0 1 222.745 66.64 L 225.448 79.356 A 0.5 0.5 0 0 1 225.063 79.949 L 212.347 82.651 A 0.5 0.5 0 0 1 211.754 82.266 L 209.051 69.55 A 0.5 0.5 0 0 1 209.436 68.957 Z M 228.07 64.997 L 240.786 62.294 A 0.5 0.5 0 0 1 241.379 62.679 L 244.081 75.395 A 0.5 0.5 0 0 1 243.696 75.988 L 230.98 78.691 A 0.5 0.5 0 0 1 230.387 78.306 L 227.685 65.59 A 0.5 0.5 0 0 1 228.07 64.997 Z M 192.434 92.047 L 205.15 89.344 A 0.5 0.5 0 0 1 205.743 89.729 L 208.446 102.445 A 0.5 0.5 0 0 1 208.06 103.038 L 195.345 105.741 A 0.5 0.5 0 0 1 194.752 105.356 L 192.049 92.64 A 0.5 0.5 0 0 1 192.434 92.047 Z M 233.16 84.364 L 245.876 81.661 A 0.5 0.5 0 0 1 246.469 82.046 L 249.172 94.762 A 0.5 0.5 0 0 1 248.787 95.355 L 236.071 98.058 A 0.5 0.5 0 0 1 235.478 97.673 L 232.775 84.957 A 0.5 0.5 0 0 1 233.16 84.364 Z M 148.588 17.733 L 161.304 20.436 A 0.5 0.5 0 0 1 161.689 21.029 L 158.986 33.745 A 0.5 0.5 0 0 1 158.393 34.13 L 145.677 31.428 A 0.5 0.5 0 0 1 145.292 30.834 L 147.995 18.119 A 0.5 0.5 0 0 1 148.588 17.733 Z M 80.341 22.703 L 93.057 25.406 A 0.5 0.5 0 0 1 93.442 25.999 L 90.739 38.714 A 0.5 0.5 0 0 1 90.146 39.1 L 77.43 36.397 A 0.5 0.5 0 0 1 77.045 35.804 L 79.748 23.088 A 0.5 0.5 0 0 1 80.341 22.703 Z M 136.242 34.585 L 148.958 37.288 A 0.5 0.5 0 0 1 149.343 37.881 L 146.64 50.597 A 0.5 0.5 0 0 1 146.047 50.982 L 133.331 48.279 A 0.5 0.5 0 0 1 132.946 47.686 L 135.649 34.97 A 0.5 0.5 0 0 1 136.242 34.585 Z M 118.306 50.248 L 131.022 52.951 A 0.5 0.5 0 0 1 131.407 53.544 L 128.704 66.26 A 0.5 0.5 0 0 1 128.111 66.645 L 115.395 63.942 A 0.5 0.5 0 0 1 115.01 63.349 L 117.713 50.633 A 0.5 0.5 0 0 1 118.306 50.248 Z M 145.323 94.942 L 158.038 97.645 A 0.5 0.5 0 0 1 158.424 98.238 L 155.721 110.954 A 0.5 0.5 0 0 1 155.128 111.339 L 142.412 108.636 A 0.5 0.5 0 0 1 142.027 108.043 L 144.729 95.327 A 0.5 0.5 0 0 1 145.323 94.942 Z M 173.33 18.205 L 186.046 15.502 A 0.5 0.5 0 0 1 186.639 15.887 L 189.342 28.603 A 0.5 0.5 0 0 1 188.957 29.196 L 176.241 31.899 A 0.5 0.5 0 0 1 175.648 31.514 L 172.945 18.798 A 0.5 0.5 0 0 1 173.33 18.205 Z M 191.964 14.244 L 204.68 11.542 A 0.5 0.5 0 0 1 205.273 11.927 L 207.976 24.643 A 0.5 0.5 0 0 1 207.59 25.236 L 194.874 27.938 A 0.5 0.5 0 0 1 194.281 27.553 L 191.579 14.837 A 0.5 0.5 0 0 1 191.964 14.244 Z M 169.837 38.423 L 182.553 35.72 A 0.5 0.5 0 0 1 183.146 36.105 L 185.849 48.821 A 0.5 0.5 0 0 1 185.464 49.414 L 172.748 52.117 A 0.5 0.5 0 0 1 172.155 51.732 L 169.452 39.016 A 0.5 0.5 0 0 1 169.837 38.423 Z M 207.105 30.502 L 219.821 27.799 A 0.5 0.5 0 0 1 220.414 28.184 L 223.116 40.9 A 0.5 0.5 0 0 1 222.731 41.493 L 210.015 44.196 A 0.5 0.5 0 0 1 209.422 43.811 L 206.72 31.095 A 0.5 0.5 0 0 1 207.105 30.502 Z M 225.738 26.541 L 238.454 23.838 A 0.5 0.5 0 0 1 239.047 24.223 L 241.75 36.939 A 0.5 0.5 0 0 1 241.365 37.532 L 228.649 40.235 A 0.5 0.5 0 0 1 228.056 39.85 L 225.353 27.134 A 0.5 0.5 0 0 1 225.738 26.541 Z M 129.935 92.694 L 135.804 93.941 A 0.5 0.5 0 0 1 136.189 94.534 L 133.279 108.228 A 0.5 0.5 0 0 1 132.686 108.613 L 126.817 107.366 A 0.5 0.5 0 0 1 126.432 106.773 L 129.342 93.079 A 0.5 0.5 0 0 1 129.935 92.694 Z M 184.388 94.779 L 190.257 93.532 A 0.5 0.5 0 0 1 190.85 93.917 L 193.761 107.611 A 0.5 0.5 0 0 1 193.376 108.204 L 187.507 109.452 A 0.5 0.5 0 0 1 186.914 109.066 L 184.003 95.372 A 0.5 0.5 0 0 1 184.388 94.779 Z M 207.742 89.815 L 213.611 88.568 A 0.5 0.5 0 0 1 214.204 88.953 L 217.115 102.647 A 0.5 0.5 0 0 1 216.73 103.24 L 210.861 104.487 A 0.5 0.5 0 0 1 210.268 104.102 L 207.357 90.408 A 0.5 0.5 0 0 1 207.742 89.815 Z M 106.581 87.729 L 112.45 88.977 A 0.5 0.5 0 0 1 112.835 89.57 L 109.924 103.264 A 0.5 0.5 0 0 1 109.331 103.649 L 103.463 102.402 A 0.5 0.5 0 0 1 103.077 101.809 L 105.988 88.115 A 0.5 0.5 0 0 1 106.581 87.729 Z M 297.006 43.53 L 303.006 43.53 A 0.5 0.5 0 0 1 303.506 44.03 L 303.506 58.03 A 0.5 0.5 0 0 1 303.006 58.53 L 297.006 58.53 A 0.5 0.5 0 0 1 296.506 58.03 L 296.506 44.03 A 0.5 0.5 0 0 1 297.006 43.53 Z M 320.882 43.53 L 326.882 43.53 A 0.5 0.5 0 0 1 327.382 44.03 L 327.382 58.03 A 0.5 0.5 0 0 1 326.882 58.53 L 320.882 58.53 A 0.5 0.5 0 0 1 320.382 58.03 L 320.382 44.03 A 0.5 0.5 0 0 1 320.882 43.53 Z M 23.638 62.58 L 29.638 62.58 A 0.5 0.5 0 0 1 30.138 63.08 L 30.138 77.08 A 0.5 0.5 0 0 1 29.638 77.58 L 23.638 77.58 A 0.5 0.5 0 0 1 23.138 77.08 L 23.138 63.08 A 0.5 0.5 0 0 1 23.638 62.58 Z M 47.514 62.58 L 53.514 62.58 A 0.5 0.5 0 0 1 54.014 63.08 L 54.014 77.08 A 0.5 0.5 0 0 1 53.514 77.58 L 47.514 77.58 A 0.5 0.5 0 0 1 47.014 77.08 L 47.014 63.08 A 0.5 0.5 0 0 1 47.514 62.58 Z" vector-effect="non-scaling-stroke"/></g></svg>